<svg width="12" height="12" viewBox="0 0 12 12" fill="none" xmlns="http://www.w3.org/2000/svg">
<g clip-path="url(#clip0_50_40)">
<path d="M0.707479 6.36396C0.519943 6.17642 0.414586 5.92207 0.414586 5.65685C0.414586 5.39164 0.519943 5.13728 0.707479 4.94975C0.895016 4.76221 1.14937 4.65685 1.41459 4.65685C1.6798 4.65685 1.93416 4.76221 2.12169 4.94975L5.65723 8.48528L9.19276 4.94975C9.3803 4.76221 9.63465 4.65685 9.89987 4.65685C10.1651 4.65685 10.4194 4.76221 10.607 4.94975C10.7945 5.13728 10.8999 5.39164 10.8999 5.65685C10.8999 5.92207 10.7945 6.17642 10.607 6.36396L6.36433 10.6066C6.19814 10.7719 5.97915 10.8736 5.7456 10.8939C5.51206 10.9142 5.27881 10.8518 5.08659 10.7176L5.01376 10.6702L4.95012 10.6066L0.707479 6.36396Z" fill="#4B463B"/>
</g>
<defs>
<clipPath id="clip0_50_40">
<rect width="11.314" height="11.314" fill="white"/>
</clipPath>
</defs>
</svg>
